<?xml version="1.0" encoding="iso-8859-1"?>
<!-- Generator: Adobe Illustrator 19.0.0, SVG Export Plug-In . SVG Version: 6.00 Build 0)  -->
<svg version="1.1" id="Layer_1" xmlns="http://www.w3.org/2000/svg" xmlns:xlink="http://www.w3.org/1999/xlink" fill="#037295" x="0px" y="0px"
	 viewBox="0 0 512.002 512.002" style="enable-background:new 0 0 512.002 512.002;" xml:space="preserve">
<g>
	<g>
		<path d="M481.996,255.231l-48.583-34.652l-2.734,49.031l27.217,19.412c9.332,6.657,22.292,4.483,28.945-4.845
			C493.497,274.847,491.328,261.887,481.996,255.231z"/>
	</g>
</g>
<g>
	<g>
		<path d="M378.401,0.072c-25.093-1.399-46.57,17.808-47.968,42.902c-1.401,25.126,17.85,46.572,42.901,47.968
			c25.037,1.395,46.566-17.759,47.968-42.902C422.701,22.947,403.494,1.472,378.401,0.072z"/>
	</g>
</g>
<g>
	<g>
		<path d="M451.723,346.46c-5.082-8.186-34.631-55.805-38.808-62.536l7.977-143.086c0.945-16.952-12.031-31.458-28.981-32.404
			l-54.734-3.052c-14.156-0.789-26.601,8.135-30.873,20.97l38.984-10.765l-96.97,53.356c-1.064,0.586-2.077,1.265-3.024,2.028
			l-66.668,53.77c-8.678,6.999-10.214,19.539-3.671,28.431c-3.718,7.407-31.174,62.122-34.778,69.302L113.05,308.86
			c-10.102-5.069-22.401-0.989-27.472,9.113L23.48,441.719c-5.069,10.103-0.989,22.403,9.113,27.472l23.884,11.985
			c-5.245,10.452-1.024,23.177,9.428,28.422c10.452,5.245,23.177,1.024,28.422-9.428c3.798-7.569,2.612-16.316-2.289-22.565
			c0.799-1.366,26.479-52.607,109.783-218.622l68.108-54.556l95.336-52.457l-64.413,52.718l-4.551,81.624
			c-2.688,9.135-20.431,69.435-22.701,77.151l-58.5,113.518c-6.076,11.79-1.444,26.273,10.346,32.349
			c11.784,6.073,26.27,1.447,32.347-10.346l59.547-115.547c0.696-1.351,1.263-2.764,1.692-4.223
			c2.442-8.297,22.495-76.449,24.923-84.699l19.683,1.098c17.612,28.382,41.96,67.619,43.661,70.36v122.011
			c0,13.263,10.751,24.015,24.015,24.015c13.263,0,24.015-10.751,24.015-24.015V359.123
			C455.331,354.648,454.081,350.262,451.723,346.46z"/>
	</g>
</g>
<g>
</g>
<g>
</g>
<g>
</g>
<g>
</g>
<g>
</g>
<g>
</g>
<g>
</g>
<g>
</g>
<g>
</g>
<g>
</g>
<g>
</g>
<g>
</g>
<g>
</g>
<g>
</g>
<g>
</g>
</svg>
